<svg width="16" height="15" viewBox="0 0 16 15" fill="none" xmlns="http://www.w3.org/2000/svg">
<path d="M14.9628 5.20682L10.4997 4.55819L8.5046 0.513459C8.45011 0.402716 8.36046 0.313068 8.24972 0.258576C7.97198 0.121466 7.63448 0.235724 7.49562 0.513459L5.5005 4.55819L1.03741 5.20682C0.914367 5.2244 0.801867 5.2824 0.715734 5.37029C0.611604 5.47732 0.554224 5.62131 0.556202 5.77062C0.558179 5.91993 0.619353 6.06235 0.726281 6.16658L3.95538 9.31483L3.19249 13.7603C3.1746 13.8637 3.18605 13.9701 3.22553 14.0673C3.265 14.1646 3.33094 14.2488 3.41585 14.3105C3.50077 14.3722 3.60127 14.4088 3.70595 14.4163C3.81063 14.4237 3.91531 14.4017 4.00812 14.3527L8.00011 12.2539L11.9921 14.3527C12.1011 14.4107 12.2277 14.4301 12.3489 14.409C12.6548 14.3562 12.8605 14.0662 12.8077 13.7603L12.0448 9.31483L15.2739 6.16658C15.3618 6.08045 15.4198 5.96795 15.4374 5.8449C15.4849 5.53729 15.2704 5.25252 14.9628 5.20682Z" fill="#50B2EA"/>
</svg>
