<svg width="102" height="102" viewBox="0 0 102 102" fill="none" xmlns="http://www.w3.org/2000/svg">
<rect x="1.41421" y="51" width="70.1249" height="70.1249" rx="19" transform="rotate(-45 1.41421 51)" stroke="white" stroke-width="2"/>
<g clip-path="url(#clip0_405_54047)">
<path d="M70.1818 37.6582C69.9636 37.0964 69.4906 36.6888 68.9164 36.5679C68.3295 36.4441 67.7164 36.6333 67.2764 37.0733L63.1737 41.176L61.1704 39.1726L65.5339 34.8092C65.9881 34.3549 66.1831 33.7223 66.0557 33.1169C65.9311 32.525 65.5106 32.0373 64.9312 31.8123C61.1231 30.333 56.7963 31.2436 53.9081 34.1317C52.3874 35.6524 51.3945 37.5726 51.0358 39.6857C50.9592 40.0451 50.8849 40.4268 50.8064 40.8305C50.3476 43.1887 49.7767 46.1235 48.1026 47.7974L33.1141 62.786C31.2634 64.6367 31.2634 67.6483 33.1141 69.4991C34.0396 70.4245 35.2552 70.8871 36.4708 70.8871C37.6863 70.8871 38.9019 70.4245 39.8273 69.4991L54.8157 54.5106C56.4898 52.8366 59.4245 52.2657 61.7827 51.8069C62.1864 51.7283 62.5681 51.6541 62.9275 51.5774C65.0407 51.2188 66.9608 50.2259 68.4815 48.7052C68.9302 48.2565 69.0601 47.6474 68.8743 47.1059C70.9106 44.4084 71.4174 40.8396 70.1818 37.6582ZM68.3749 38.1718C68.4434 38.1034 68.5241 38.0728 68.5964 38.0882C68.6585 38.1012 68.7046 38.1458 68.7337 38.2206C69.7269 40.7777 69.3836 43.6322 67.8583 45.8606L64.2722 42.2745L68.3749 38.1718ZM67.3829 47.6068C66.088 48.9017 64.4524 49.7459 62.6529 50.0483C62.6415 50.0502 62.6304 50.0524 62.6191 50.0548C62.2689 50.1297 61.8886 50.2036 61.4859 50.282C58.9201 50.7811 55.7268 51.4023 53.717 53.4121L38.7288 68.4005C37.4838 69.6456 35.4579 69.6455 34.2127 68.4004C32.9677 67.1554 32.9677 65.1296 34.2127 63.8845L49.2012 48.896C51.211 46.8863 51.8322 43.693 52.3313 41.1272C52.4097 40.7245 52.4837 40.3442 52.5586 39.994C52.561 39.9827 52.5631 39.9716 52.5651 39.9601C52.8673 38.1608 53.7116 36.5251 55.0067 35.2302C56.6791 33.5577 58.9191 32.6663 61.2007 32.6663C62.2654 32.6663 63.3396 32.8605 64.3688 33.2603C64.4624 33.2966 64.5185 33.356 64.5355 33.4367C64.5547 33.5278 64.5182 33.6276 64.4354 33.7103L59.5226 38.6231C59.2193 38.9264 59.2193 39.4183 59.5226 39.7217L67.3872 47.5863C67.39 47.589 67.3924 47.5915 67.3945 47.5939C67.3915 47.5979 67.3877 47.602 67.3829 47.6068Z" fill="white"/>
<path d="M58.4239 40.8205C58.2781 40.6749 58.0806 40.593 57.8746 40.593C57.6686 40.593 57.471 40.6749 57.3253 40.8205L55.1284 43.0176C54.825 43.3209 54.825 43.8128 55.1284 44.1162L58.2302 47.2181C58.3759 47.3637 58.5735 47.4456 58.7795 47.4456C58.9855 47.4456 59.1831 47.3637 59.3287 47.2181L61.5258 45.021C61.8291 44.7177 61.8291 44.2259 61.5258 43.9224L58.4239 40.8205ZM58.7794 45.5702L56.7761 43.5668L57.8746 42.4683L59.8779 44.4716L58.7794 45.5702Z" fill="white"/>
<path d="M37.0196 65.5931C36.7162 65.2897 36.2246 65.2901 35.9213 65.5933C35.6179 65.8967 35.6181 66.3887 35.9214 66.6921C36.0731 66.8437 36.2719 66.9196 36.4707 66.9196C36.6695 66.9196 36.8682 66.8437 37.0199 66.6921C37.3233 66.3888 37.3233 65.8969 37.0199 65.5935L37.0196 65.5931Z" fill="white"/>
<path d="M50.9103 50.6049L38.3935 63.1217C38.0902 63.425 38.0902 63.9168 38.3935 64.2203C38.5452 64.3719 38.744 64.4478 38.9428 64.4478C39.1416 64.4478 39.3403 64.3719 39.492 64.2203L52.0088 51.7035C52.3122 51.4001 52.3122 50.9083 52.0088 50.6049C51.7054 50.3016 51.2137 50.3016 50.9103 50.6049Z" fill="white"/>
</g>
<defs>
<clipPath id="clip0_405_54047">
<rect width="39.7744" height="39.7744" fill="white" transform="translate(31.4004 31.1128)"/>
</clipPath>
</defs>
</svg>
